<svg version="1.1" id="Layer_1" xmlns="http://www.w3.org/2000/svg" xmlns:xlink="http://www.w3.org/1999/xlink" x="0px" y="0px"
	 width="100%" viewBox="0 0 641 641" enable-background="new 0 0 641 641" xml:space="preserve">
<path fill="#FBFEFF" opacity="1.000000" stroke="none" 
	d="
M453.000000,642.000000 
	C302.378693,642.000000 151.757385,642.000000 1.068040,642.000000 
	C1.068040,428.443054 1.068040,214.886047 1.068040,1.000000 
	C112.689774,1.000000 224.379883,1.000000 336.503601,1.381232 
	C337.752106,2.476151 338.567017,3.189838 339.381897,3.903520 
	C339.921265,2.935676 340.460632,1.967835 341.000000,0.999997 
	C441.294922,1.000000 541.589844,1.000000 641.942383,1.000000 
	C641.942383,214.546448 641.942383,428.092926 641.942383,642.000000 
	C581.643799,642.000000 521.286926,642.000000 460.647797,641.686584 
	C461.764191,641.143860 463.162811,640.914551 464.857483,640.636719 
	C463.806854,638.475220 462.909729,636.629456 461.567932,633.868896 
	C458.276184,636.992859 455.638092,639.496399 453.000000,642.000000 
M450.563629,25.003605 
	C450.563629,25.003605 450.121521,24.994858 449.940430,24.363064 
	C449.895020,23.928183 449.849609,23.493299 450.410553,22.614515 
	C451.295776,17.254686 448.340515,14.323283 441.207001,14.067106 
	C440.799866,14.052242 440.392761,14.037377 439.330261,13.509957 
	C432.312866,12.375704 425.449341,11.910408 419.465546,18.301332 
	C413.541260,27.098877 414.762299,35.359100 423.229797,41.706985 
	C430.791321,45.276272 438.029694,44.793919 445.413147,39.802689 
	C445.600403,39.519985 445.787659,39.237278 445.998505,39.001560 
	C445.998505,39.001560 445.952271,38.976398 446.437561,38.777100 
	C446.615295,38.485504 446.793030,38.193909 447.095734,37.369061 
	C447.200592,37.021233 447.305420,36.673405 447.189026,36.224842 
	C447.189026,36.224842 447.370514,36.386589 447.791779,36.269985 
	C447.791779,36.269985 448.178711,36.063980 448.588409,35.759155 
	C448.700256,35.445423 448.812073,35.131691 448.967438,34.403664 
	C448.967438,34.403664 449.163422,34.036076 449.728149,33.943199 
	C449.796722,33.284554 449.865265,32.625908 449.946198,31.113268 
	C450.017792,29.407217 450.089417,27.701164 450.536194,25.752436 
	C450.760071,25.542923 450.912140,25.290195 451.263153,24.888021 
	C451.177368,24.927887 451.091583,24.967752 450.563629,25.003605 
M334.002899,40.997772 
	C334.002899,40.997772 333.964966,40.974659 334.628540,40.933086 
	C335.109436,40.525009 335.590363,40.116932 336.151855,39.627823 
	C336.151855,39.627823 336.238068,39.552784 337.081482,39.811104 
	C338.361725,39.117779 340.018860,38.724365 340.853088,37.676098 
	C343.591400,34.235348 342.966644,30.559793 340.754425,26.652346 
	C340.754425,26.652346 340.874878,26.312140 340.951050,25.686279 
	C340.716217,25.136288 340.481415,24.586296 340.019104,23.394953 
	C339.946381,22.947664 339.873688,22.500376 340.658325,22.022293 
	C344.306885,22.216305 347.554077,21.395260 349.199707,17.781425 
	C350.509094,14.905998 351.657715,11.923835 352.523926,8.888123 
	C353.760376,4.554782 352.700684,3.691807 347.480194,4.888556 
	C347.311981,4.846667 347.143768,4.804778 346.748901,4.494038 
	C346.490906,4.638931 346.232910,4.783824 345.978485,4.989052 
	C345.978485,4.989052 345.920807,4.970517 345.258484,5.095625 
	C344.949768,6.540090 344.641022,7.984554 344.093170,10.547822 
	C342.052246,9.391970 340.234192,8.362348 338.363098,7.302688 
	C336.932007,8.942528 335.060730,11.086764 333.483459,12.894125 
	C325.867706,11.973572 318.411835,10.921625 310.919830,10.319577 
	C309.713470,10.222635 308.345917,12.131150 307.018066,13.514451 
	C307.018066,13.514451 307.037842,13.917303 307.084595,14.671565 
	C308.051117,18.562393 309.423340,22.406570 309.877502,26.356316 
	C310.400330,30.902805 310.111603,35.542614 310.284058,40.140972 
	C310.284058,40.140972 310.305908,40.247498 309.467102,40.103615 
	C305.563416,41.462589 305.122894,42.843861 307.053894,48.542328 
	C307.668152,46.936718 308.158844,45.654037 308.870087,43.794964 
	C311.126556,45.603428 313.066040,47.157837 315.684174,49.256142 
	C315.818726,46.929787 315.908600,45.375515 316.752930,43.730843 
	C317.500305,43.853302 318.247650,43.975765 319.122620,44.773617 
	C320.184265,45.918324 321.245911,47.063026 322.496552,48.411530 
	C325.274872,46.482521 327.644073,44.837566 330.484436,42.763550 
	C331.278961,42.494392 332.073456,42.225235 333.363190,41.782261 
	C333.568848,41.507915 333.774536,41.233574 334.002899,40.997772 
M462.003448,41.004520 
	C462.003448,41.004520 462.021515,40.992924 462.347961,41.497578 
	C462.900818,41.657692 463.453705,41.817806 464.013062,42.004795 
	C464.013062,42.004795 464.030548,41.981922 464.613861,42.465233 
	C471.061768,45.088207 477.543823,43.933838 484.609375,42.927464 
	C487.057556,43.039829 489.505737,43.152195 492.093018,43.270943 
	C490.210754,37.659378 493.186676,33.160847 498.451782,33.094368 
	C500.279144,33.071293 502.106934,33.084339 504.254059,33.738323 
	C505.416290,36.799294 506.578491,39.860264 507.712402,42.846649 
	C510.420288,42.846649 513.096252,42.846649 514.423584,42.846649 
	C509.850708,32.966690 505.191071,22.899172 499.978973,11.638081 
	C498.542053,15.169623 497.737762,17.146284 496.454498,19.582832 
	C493.648682,25.967649 490.965271,32.411148 487.952179,38.696568 
	C487.185638,40.295551 485.371826,41.392471 483.280060,42.518444 
	C482.062927,41.737663 480.899841,40.403236 479.618652,40.278126 
	C475.491974,39.875145 471.321777,39.917965 467.070221,39.887268 
	C467.070221,39.887268 467.204254,39.850620 466.981750,39.375767 
	C466.656281,39.307365 466.330780,39.238964 465.415558,38.848202 
	C458.960083,33.263973 460.224274,26.433287 462.845581,19.014187 
	C468.986115,12.509510 475.629150,14.689319 482.844421,17.789246 
	C482.657074,16.111984 482.307190,14.246715 481.275452,13.721965 
	C475.668488,10.870153 463.156891,13.351196 457.921661,18.340757 
	C457.315552,19.242477 456.709442,20.144196 455.405518,21.314688 
	C451.372162,25.852470 452.786896,35.841507 458.229309,38.287601 
	C458.392700,38.323372 458.556091,38.359146 458.794342,38.185009 
	C458.794342,38.185009 458.654999,38.358944 458.890747,38.905785 
	C459.553925,39.325249 460.217133,39.744709 460.939362,40.071728 
	C460.939362,40.071728 460.834198,40.102928 461.033844,40.607521 
	C461.356384,40.733021 461.678925,40.858517 462.003448,41.004520 
M281.414001,43.563087 
	C281.812744,43.335732 282.211487,43.108376 282.610229,42.881020 
	C281.996918,42.628880 281.383575,42.376740 280.005310,42.056721 
	C279.316589,39.395958 278.627869,36.735195 278.104126,33.143547 
	C278.067200,28.089109 278.030304,23.034672 278.134857,17.489817 
	C278.080505,17.328600 278.026123,17.167381 278.015839,16.965687 
	C278.015839,16.965687 277.973450,16.923458 278.558258,16.358030 
	C282.010468,16.540756 285.462677,16.723482 289.149902,16.918648 
	C289.149902,16.315462 289.149902,14.760771 289.149902,13.143392 
	C284.903381,13.143392 280.961731,13.143392 276.337433,13.030890 
	C275.880219,13.068109 275.423004,13.105327 274.057495,12.983706 
	C270.757385,12.967977 267.438110,12.746460 264.167938,13.051683 
	C263.070557,13.154108 262.098419,14.598184 261.069031,15.429026 
	C261.709076,15.932005 262.349152,16.434984 263.055725,17.519482 
	C264.703735,17.027292 266.351776,16.535105 268.656311,15.889521 
	C269.100525,15.936296 269.544739,15.983070 269.998840,16.962730 
	C269.753632,25.175976 269.309326,33.392628 269.449738,41.599274 
	C269.474518,43.049404 271.733429,45.265640 273.331818,45.673515 
	C275.178345,46.144714 278.609070,47.730438 279.682983,43.183311 
	C280.146271,43.166168 280.609589,43.149021 281.414001,43.563087 
M93.000114,43.000233 
	C93.000114,43.000233 93.005577,42.988613 93.410576,43.563503 
	C95.644287,44.545807 97.814850,45.783665 100.148773,46.360466 
	C100.884491,46.542286 102.057983,44.952770 103.803345,44.038696 
	C104.845894,43.977123 105.888435,43.915554 107.388428,44.413578 
	C110.797394,44.841568 114.205582,45.275928 117.615562,45.695667 
	C120.703148,46.075710 123.128769,45.308086 124.089500,41.191639 
	C125.030182,34.727905 128.975174,32.819386 135.006165,34.009468 
	C135.006165,34.009468 134.979004,34.037636 134.965973,34.889801 
	C134.519333,39.304337 135.322021,43.667362 139.700974,45.270599 
	C141.891571,46.072624 145.034439,44.273624 147.746613,43.651043 
	C147.660965,43.221664 147.575333,42.792290 147.489685,42.362915 
	C146.551163,42.197689 145.612625,42.032467 144.624649,41.615295 
	C144.624649,41.615295 144.818497,41.446941 144.933167,40.660553 
	C143.997971,39.095074 143.062790,37.529598 141.906631,35.682587 
	C141.906631,35.682587 141.875565,35.326038 141.824890,34.788376 
	C141.589172,34.526779 141.353455,34.265179 140.754196,33.383911 
	C139.223190,30.230318 137.692169,27.076721 136.128632,23.198782 
	C135.127975,21.086132 134.127335,18.973480 133.050873,17.001678 
	C133.050873,17.001678 133.156677,16.881676 133.108353,16.173826 
	C132.452850,15.080395 131.797363,13.986962 130.485901,11.799322 
	C129.332809,15.092614 128.651077,17.039663 128.003174,18.994478 
	C128.003174,18.994478 127.975967,18.970850 127.457603,19.426937 
	C126.429543,21.683451 125.539375,24.015949 124.346176,26.181480 
	C121.388512,31.549356 118.292366,36.840931 114.679031,41.763256 
	C114.064392,40.828056 113.449753,39.892857 112.867378,38.220028 
	C112.867378,37.269356 112.867378,36.318687 112.867378,35.368015 
	C110.452774,40.206707 106.432030,41.531120 101.582367,40.866535 
	C99.020416,40.515457 96.520996,39.708065 93.357170,38.806023 
	C86.316238,32.518341 85.068626,23.238373 90.503929,13.234488 
	C99.233185,7.326372 107.236977,8.708071 112.731354,16.893791 
	C112.722023,14.007024 113.218567,9.872723 111.562958,8.648170 
	C106.490952,4.896724 92.224358,7.229529 86.092308,12.176459 
	C76.804291,21.607424 78.664848,35.625553 90.116898,41.546032 
	C90.412491,41.752808 90.708084,41.959583 91.371216,42.608734 
	C91.917458,42.736031 92.463692,42.863327 93.000114,43.000233 
M363.091034,19.467848 
	C363.091034,19.467848 363.185425,19.957499 363.008942,20.694180 
	C359.938599,28.248114 356.868256,35.802048 353.832581,43.270775 
	C355.469025,43.270775 357.943237,43.273827 360.417419,43.263588 
	C360.574432,43.262939 360.730988,43.158981 360.887756,43.103085 
	C358.908813,40.624321 360.694275,32.993042 363.497833,31.947323 
	C368.696777,30.008144 373.785828,32.323975 375.924377,37.578835 
	C376.235107,38.342316 376.659576,39.059502 377.132843,40.675537 
	C379.642365,46.045776 383.903168,41.901421 386.105408,42.658504 
	C378.686584,34.105316 377.151031,22.062893 371.649170,11.306046 
	C371.010712,10.064582 370.372253,8.823117 369.232117,6.606218 
	C367.966003,9.414921 367.169281,11.298887 366.274658,13.135154 
	C365.311981,15.111056 364.257538,17.042242 363.091034,19.467848 
M559.051025,26.262272 
	C558.721497,26.151636 558.391907,26.041000 557.633789,25.422832 
	C555.388123,23.287348 553.142517,21.151863 551.172729,18.337267 
	C552.862854,17.224581 554.576782,15.180412 556.237488,15.222761 
	C558.587585,15.282690 560.898376,16.882603 563.152954,17.794756 
	C563.152954,16.673975 563.152954,14.987665 563.152954,12.991674 
	C559.955566,12.991674 557.123901,12.707299 554.369324,13.047257 
	C547.304443,13.919186 544.799866,20.081984 549.175903,26.698910 
	C552.481201,29.134422 555.786438,31.569933 559.156677,34.716198 
	C558.625183,36.735748 558.744446,39.518414 557.439636,40.631210 
	C553.584473,43.919075 550.098511,40.879631 546.155029,39.146305 
	C546.563965,41.013943 547.390381,42.901432 548.655090,43.265251 
	C550.977112,43.933258 553.599060,44.056221 556.020935,43.770466 
	C560.343018,43.260525 563.584351,40.977512 564.293213,36.396427 
	C564.965393,32.051876 563.406250,28.614971 559.165771,26.783562 
	C559.165771,26.783562 559.287781,26.744955 559.051025,26.262272 
M180.930283,41.553188 
	C180.857956,42.067017 180.785614,42.580845 180.713287,43.094677 
	C182.986328,43.094677 185.259354,43.094677 187.063889,43.094677 
	C187.063889,34.230873 187.139587,25.833624 186.972992,17.441189 
	C186.950882,16.327843 185.696533,15.238959 184.281403,13.959620 
	C183.533279,14.006329 182.785172,14.053037 181.395920,13.978331 
	C181.329498,14.645008 181.263077,15.311685 181.142700,16.916418 
	C181.173462,24.941473 181.204224,32.966530 180.930283,41.553188 
M172.185608,39.244862 
	C174.522278,35.152317 173.600830,31.737804 170.164795,28.700243 
	C168.567520,27.288195 167.193176,26.019272 168.985748,23.328636 
	C172.531738,18.006100 170.631348,14.643784 163.610611,13.201626 
	C162.041763,13.440639 160.472900,13.679652 158.048004,13.957876 
	C156.130142,13.957876 154.212280,13.957876 153.053284,13.957876 
	C153.053284,23.044485 153.053284,31.518141 152.484756,40.351986 
	C151.766495,41.327038 151.048233,42.302090 150.023315,43.693432 
	C155.238068,44.464439 160.001495,46.170322 164.329071,45.406559 
	C166.663223,44.994606 172.426804,45.710556 172.185608,39.244862 
M529.704895,123.674522 
	C529.485962,121.742790 529.266968,119.811050 529.112061,116.963112 
	C528.284790,102.389259 527.457520,87.815414 526.629395,73.225998 
	C391.391266,73.225998 256.804779,73.225998 121.777237,73.225998 
	C120.744331,90.299057 119.726372,107.125221 118.687263,124.300758 
	C123.232903,124.300758 126.884605,124.302963 130.536316,124.300423 
	C184.024109,124.263245 237.511902,124.225441 291.294189,124.636200 
	C291.554565,125.101303 291.814972,125.566406 291.862549,126.941681 
	C291.855164,225.613647 291.846680,324.285614 291.849457,422.957581 
	C291.849518,424.615814 291.986115,426.274017 291.894897,428.692108 
	C291.894897,430.106079 291.894897,431.520050 291.894897,432.934021 
	C290.870911,432.178528 290.456726,431.313843 290.143311,430.414062 
	C258.528107,339.653687 226.907059,248.895325 195.369827,158.107834 
	C194.298553,155.023941 193.017090,153.746780 189.472290,153.778595 
	C166.816086,153.981934 144.157150,153.877228 121.499130,153.891342 
	C120.030312,153.892258 118.561584,154.038544 116.802101,154.132782 
	C105.967300,309.518097 95.151733,464.627594 84.317413,620.005920 
	C103.674667,620.005920 122.577972,620.005920 141.732758,620.005920 
	C142.186569,613.644348 142.696381,607.548279 143.042114,601.442932 
	C143.889145,586.485107 144.632248,571.521423 145.468018,556.562927 
	C147.324753,523.331238 149.234573,490.102570 151.079666,456.870239 
	C152.187134,436.923431 153.205185,416.971649 154.278168,397.022919 
	C155.860062,367.612335 157.470459,338.203308 159.039886,308.792053 
	C160.406067,283.189514 161.732254,257.584869 163.718628,231.878082 
	C164.138321,230.238968 164.558014,228.599869 164.912674,227.214737 
	C166.692871,230.685944 168.304459,233.828354 170.320389,237.631485 
	C174.714630,253.446609 178.631073,269.413361 183.592300,285.048584 
	C198.744873,332.801544 213.952576,380.542450 229.783722,428.073273 
	C250.504410,490.284149 271.861725,552.282898 292.844940,614.406738 
	C293.771454,617.149841 295.076385,617.939514 297.833435,617.908569 
	C309.829254,617.773926 321.837128,617.571838 333.819855,617.989990 
	C338.525208,618.154114 340.424805,616.538574 341.942749,612.299377 
	C354.646759,576.820496 367.599854,541.430969 380.433411,505.998444 
	C400.346619,451.019470 420.731934,396.204285 439.949402,340.982910 
	C454.070282,300.406433 466.637573,259.289429 479.924133,218.422028 
	C480.406219,216.939178 481.174103,215.549240 481.808777,214.115997 
	C482.250610,214.256409 482.692413,214.396805 483.134216,214.537216 
	C483.134216,221.005508 482.915558,227.482437 483.170105,233.940704 
	C484.691650,272.543182 486.291107,311.142670 487.927277,349.740509 
	C488.999207,375.028168 490.069061,400.316711 491.331879,425.595306 
	C493.499725,468.990479 495.816742,512.378235 498.073120,555.769043 
	C499.084778,575.223328 500.214478,594.672546 501.035828,614.134827 
	C501.240570,618.987061 502.802399,620.535889 507.860565,620.415283 
	C523.847839,620.033997 539.849731,620.276062 555.846008,620.251282 
	C557.273743,620.249023 558.701233,620.061035 560.586853,619.926636 
	C550.891174,464.338257 541.227112,309.258484 531.544617,153.882446 
	C529.459656,153.882446 527.973938,153.882492 526.488159,153.882446 
	C504.159851,153.881622 481.830811,153.969666 459.503906,153.792542 
	C455.776764,153.762985 454.137939,154.781509 452.797760,158.442383 
	C428.416748,225.043350 403.729553,291.532288 379.379395,358.144440 
	C370.551239,382.294586 362.432800,406.704163 353.393494,431.095673 
	C353.044617,430.893860 352.695740,430.692017 352.518982,429.864685 
	C352.498383,428.572113 352.477783,427.279572 352.684631,425.501190 
	C352.614807,425.336548 352.545013,425.171936 352.642914,424.085846 
	C352.655579,327.868866 352.670502,231.651886 352.670746,135.434906 
	C352.670776,132.279404 352.521454,129.123901 352.730743,125.484131 
	C352.730225,125.296143 352.729736,125.108162 352.923370,124.856522 
	C352.923370,124.856522 352.951447,124.654160 353.893158,124.675041 
	C410.130402,124.655533 466.367615,124.642654 522.604858,124.590851 
	C524.722900,124.588898 526.840576,124.209549 529.004089,124.025452 
	C529.004089,124.025452 529.028015,123.981926 529.704895,123.674522 
M399.401581,34.767986 
	C397.219025,27.537706 392.386475,21.119177 392.375458,13.284754 
	C389.251587,13.284754 385.741760,13.284754 382.813629,13.284754 
	C384.106720,14.880949 385.849396,16.374763 386.747772,18.269016 
	C389.090179,23.208117 391.034210,28.334860 393.192230,33.363125 
	C394.718445,36.919285 396.334656,40.436825 397.910645,43.971615 
	C398.393219,43.941288 398.875793,43.910961 399.358368,43.880634 
	C400.074707,41.512733 400.791077,39.144829 402.186859,36.528915 
	C405.677826,29.224865 409.168793,21.920813 412.659760,14.616760 
	C412.027618,14.176848 411.395477,13.736936 410.763336,13.297023 
	C409.771332,14.469805 408.448639,15.494184 407.844238,16.840919 
	C405.151459,22.841555 402.663971,28.934341 399.401581,34.767986 
M529.063599,12.964929 
	C525.276001,12.961031 521.473450,13.166063 517.704895,12.896325 
	C513.683350,12.608479 512.205750,14.068423 512.889038,16.810024 
	C516.794800,16.531172 520.375854,16.275503 524.025391,16.952492 
	C524.025391,25.585594 524.025391,34.218697 524.025391,42.914948 
	C526.081238,42.914948 528.974487,42.914948 532.107788,42.914948 
	C529.731506,40.291576 528.968323,24.394838 530.674683,15.955847 
	C532.737000,15.955847 534.875977,15.955847 537.618469,16.192381 
	C538.614197,16.806870 539.609924,17.421360 540.693970,18.090326 
	C541.315613,14.749164 541.552490,11.993474 536.130920,13.021226 
	C534.081848,13.058576 532.032837,13.095924 529.063599,12.964929 
M245.626740,25.176027 
	C245.453415,22.742210 245.280106,20.308393 245.252457,17.351946 
	C245.231934,16.992302 245.211426,16.632658 245.995255,15.916949 
	C249.248688,16.201014 252.502121,16.485079 256.079132,16.797398 
	C256.136322,16.437029 256.381195,14.893365 256.655273,13.165557 
	C252.517899,13.165557 248.753860,13.165557 244.188721,13.035065 
	C242.494064,13.381031 240.799408,13.726998 239.225937,14.048225 
	C239.225937,23.958136 239.225937,33.361656 239.225937,42.848122 
	C250.697296,44.404640 256.320526,43.597927 256.518890,40.175068 
	C245.925186,42.078491 243.889725,41.922478 246.258743,27.898577 
	C249.358551,28.400696 252.471878,28.905006 255.641647,29.418457 
	C255.641647,28.135103 255.641647,26.908226 255.641647,25.974880 
	C252.197205,25.974880 249.062607,25.974880 245.626740,25.176027 
M223.725006,16.798260 
	C223.725006,22.649082 223.725006,28.499905 223.725006,34.350727 
	C223.141342,34.775429 222.557678,35.200134 221.974014,35.624836 
	C214.899078,28.103996 207.824158,20.583157 200.254227,12.536115 
	C199.206314,23.128073 201.164856,33.237331 198.724838,42.883873 
	C200.409653,42.883873 202.942200,42.883873 204.729584,42.883873 
	C201.910110,36.451595 203.423157,29.826773 202.931473,22.476765 
	C210.065857,29.178843 216.424377,35.152054 223.074142,41.746025 
	C224.131332,42.447216 225.188522,43.148411 226.803604,44.219635 
	C226.803604,41.857422 226.803604,40.459038 226.962814,38.219074 
	C226.923996,36.795982 226.885178,35.372887 227.006348,33.035343 
	C227.006348,26.853832 227.006348,20.672319 227.006348,14.490808 
	C226.675827,14.196280 226.345291,13.901752 226.014771,13.607224 
	C225.266602,14.402284 224.518448,15.197343 223.725006,16.798260 
M337.447937,49.371410 
	C337.447937,47.643345 337.447937,45.915279 337.447937,44.187214 
	C336.634918,44.324604 335.821930,44.461998 335.008911,44.599388 
	C335.586029,46.235394 336.163147,47.871399 337.447937,49.371410 
M332.305115,49.922573 
	C332.567719,49.409660 332.830322,48.896748 333.092926,48.383842 
	C332.346344,48.387573 331.599731,48.391304 330.853149,48.395042 
	C331.120911,48.905518 331.388672,49.415997 332.305115,49.922573 
z"/>
<path fill="#3173A9" opacity="1.000000" stroke="none" 
	d="
M453.437500,642.000000 
	C455.638092,639.496399 458.276184,636.992859 461.567932,633.868896 
	C462.909729,636.629456 463.806854,638.475220 464.857483,640.636719 
	C463.162811,640.914551 461.764191,641.143860 460.182800,641.686584 
	C457.958344,642.000000 455.916656,642.000000 453.437500,642.000000 
z"/>
<path fill="#EFFAFB" opacity="1.000000" stroke="none" 
	d="
M340.600006,0.999997 
	C340.460632,1.967835 339.921265,2.935676 339.381897,3.903520 
	C338.567017,3.189838 337.752106,2.476151 336.968628,1.381232 
	C338.066681,1.000000 339.133331,1.000000 340.600006,0.999997 
z"/>
<path fill="#1A70B7" opacity="1.000000" stroke="none" 
	d="
M353.990540,430.995361 
	C362.432800,406.704163 370.551239,382.294586 379.379395,358.144440 
	C403.729553,291.532288 428.416748,225.043350 452.797760,158.442383 
	C454.137939,154.781509 455.776764,153.762985 459.503906,153.792542 
	C481.830811,153.969666 504.159851,153.881622 526.488159,153.882446 
	C527.973938,153.882492 529.459656,153.882446 531.544617,153.882446 
	C541.227112,309.258484 550.891174,464.338257 560.586853,619.926636 
	C558.701233,620.061035 557.273743,620.249023 555.846008,620.251282 
	C539.849731,620.276062 523.847839,620.033997 507.860565,620.415283 
	C502.802399,620.535889 501.240570,618.987061 501.035828,614.134827 
	C500.214478,594.672546 499.084778,575.223328 498.073120,555.769043 
	C495.816742,512.378235 493.499725,468.990479 491.331879,425.595306 
	C490.069061,400.316711 488.999207,375.028168 487.927277,349.740509 
	C486.291107,311.142670 484.691650,272.543182 483.170105,233.940704 
	C482.915558,227.482437 483.134216,221.005508 483.134216,214.537216 
	C482.692413,214.396805 482.250610,214.256409 481.808777,214.115997 
	C481.174103,215.549240 480.406219,216.939178 479.924133,218.422028 
	C466.637573,259.289429 454.070282,300.406433 439.949402,340.982910 
	C420.731934,396.204285 400.346619,451.019470 380.433411,505.998444 
	C367.599854,541.430969 354.646759,576.820496 341.942749,612.299377 
	C340.424805,616.538574 338.525208,618.154114 333.819855,617.989990 
	C321.837128,617.571838 309.829254,617.773926 297.833435,617.908569 
	C295.076385,617.939514 293.771454,617.149841 292.844940,614.406738 
	C271.861725,552.282898 250.504410,490.284149 229.783722,428.073273 
	C213.952576,380.542450 198.744873,332.801544 183.592300,285.048584 
	C178.631073,269.413361 174.714630,253.446609 170.155487,236.900757 
	C168.178009,228.861679 166.365448,221.553345 164.552887,214.245010 
	C164.060638,214.311844 163.568375,214.378677 163.076126,214.445511 
	C163.076126,220.290726 163.076126,226.135925 163.076126,231.981140 
	C161.732254,257.584869 160.406067,283.189514 159.039886,308.792053 
	C157.470459,338.203308 155.860062,367.612335 154.278168,397.022919 
	C153.205185,416.971649 152.187134,436.923431 151.079666,456.870239 
	C149.234573,490.102570 147.324753,523.331238 145.468018,556.562927 
	C144.632248,571.521423 143.889145,586.485107 143.042114,601.442932 
	C142.696381,607.548279 142.186569,613.644348 141.732758,620.005920 
	C122.577972,620.005920 103.674667,620.005920 84.317413,620.005920 
	C95.151733,464.627594 105.967300,309.518097 116.802101,154.132782 
	C118.561584,154.038544 120.030312,153.892258 121.499130,153.891342 
	C144.157150,153.877228 166.816086,153.981934 189.472290,153.778595 
	C193.017090,153.746780 194.298553,155.023941 195.369827,158.107834 
	C226.907059,248.895325 258.528107,339.653687 290.143311,430.414062 
	C290.456726,431.313843 290.870911,432.178528 291.894897,432.934021 
	C291.894897,431.520050 291.894897,430.106079 292.261719,428.018494 
	C292.751434,424.699432 292.981171,422.053986 292.981689,419.408478 
	C292.999084,326.864990 292.983643,234.321472 293.029938,141.777985 
	C293.032074,137.491974 293.674469,133.208359 293.753479,128.918732 
	C293.770996,127.966949 292.664368,126.994461 292.075348,126.031509 
	C291.814972,125.566406 291.554565,125.101303 290.890930,124.071701 
	C288.520813,123.338036 286.554077,123.021988 284.587189,123.021126 
	C231.765198,122.997963 178.943192,123.015800 126.121223,122.976860 
	C124.166702,122.975418 122.212547,122.473152 120.153130,122.189819 
	C120.861900,119.737015 121.632301,118.219978 121.694603,116.674400 
	C122.213448,103.803139 122.541306,90.923782 123.143044,78.056992 
	C123.191780,77.014832 124.714592,75.381485 125.780807,75.169044 
	C129.171875,74.493355 132.670853,74.061409 136.128357,74.059975 
	C260.101776,74.008507 384.075195,74.005898 508.048584,74.059547 
	C512.673279,74.061546 517.334839,74.459351 521.897278,75.186668 
	C523.099243,75.378273 524.706970,77.387611 524.908508,78.743599 
	C525.831848,84.952873 526.650085,91.214684 526.876892,97.480408 
	C527.110535,103.934227 526.544678,110.414352 526.542175,116.883064 
	C526.541931,117.595078 527.945190,118.307632 528.763550,119.429535 
	C528.895691,121.220070 528.961853,122.600998 529.028015,123.981926 
	C529.028015,123.981926 529.004089,124.025452 528.520020,123.957268 
	C471.267395,123.880325 414.498840,123.865112 357.730316,123.896019 
	C356.137207,123.896881 354.544403,124.390381 352.951447,124.654160 
	C352.951447,124.654160 352.923370,124.856522 352.665894,124.960060 
	C352.340790,125.158829 352.204193,125.266823 352.218994,125.346855 
	C352.258453,125.560463 352.363037,125.762039 352.441742,125.968399 
	C352.521454,129.123901 352.670776,132.279404 352.670746,135.434906 
	C352.670502,231.651886 352.655579,327.868866 352.437469,424.640778 
	C352.088898,425.522034 352.163940,425.785797 352.457184,425.987000 
	C352.477783,427.279572 352.498383,428.572113 352.306061,430.526367 
	C352.211121,431.884979 352.329132,432.581879 352.447083,433.278809 
	C352.961548,432.517639 353.476044,431.756500 353.990540,430.995361 
M349.200439,430.160706 
	C349.337982,431.245880 349.475494,432.331024 349.613037,433.416199 
	C350.128967,433.233398 350.644867,433.050598 351.160767,432.867798 
	C350.588013,431.756317 350.015228,430.644806 349.200439,430.160706 
z"/>
<path fill="#306AA0" opacity="1.000000" stroke="none" 
	d="
M528.697510,119.019928 
	C527.945190,118.307632 526.541931,117.595078 526.542175,116.883064 
	C526.544678,110.414352 527.110535,103.934227 526.876892,97.480408 
	C526.650085,91.214684 525.831848,84.952873 524.908508,78.743599 
	C524.706970,77.387611 523.099243,75.378273 521.897278,75.186668 
	C517.334839,74.459351 512.673279,74.061546 508.048584,74.059547 
	C384.075195,74.005898 260.101776,74.008507 136.128357,74.059975 
	C132.670853,74.061409 129.171875,74.493355 125.780807,75.169044 
	C124.714592,75.381485 123.191780,77.014832 123.143044,78.056992 
	C122.541306,90.923782 122.213448,103.803139 121.694603,116.674400 
	C121.632301,118.219978 120.861900,119.737015 120.153130,122.189819 
	C122.212547,122.473152 124.166702,122.975418 126.121223,122.976860 
	C178.943192,123.015800 231.765198,122.997963 284.587189,123.021126 
	C286.554077,123.021988 288.520813,123.338036 290.743652,123.847488 
	C237.511902,124.225441 184.024109,124.263245 130.536316,124.300423 
	C126.884605,124.302963 123.232903,124.300758 118.687263,124.300758 
	C119.726372,107.125221 120.744331,90.299057 121.777237,73.225998 
	C256.804779,73.225998 391.391266,73.225998 526.629395,73.225998 
	C527.457520,87.815414 528.284790,102.389259 528.986206,117.704773 
	C528.806091,118.637596 528.751770,118.828758 528.697510,119.019928 
z"/>
<path fill="#2C72AD" opacity="1.000000" stroke="none" 
	d="
M222.782883,41.125256 
	C216.424377,35.152054 210.065857,29.178843 202.931473,22.476765 
	C203.423157,29.826773 201.910110,36.451595 204.729584,42.883873 
	C202.942200,42.883873 200.409653,42.883873 198.724838,42.883873 
	C201.164856,33.237331 199.206314,23.128073 200.254227,12.536115 
	C207.824158,20.583157 214.899078,28.103996 221.974014,35.624836 
	C222.557678,35.200134 223.141342,34.775429 223.725006,34.350727 
	C223.725006,28.499905 223.725006,22.649082 224.109741,16.442356 
	C225.002640,17.649263 225.802795,19.182810 225.962906,20.780497 
	C226.401382,25.155832 226.570557,29.558157 226.846359,33.949795 
	C226.885178,35.372887 226.923996,36.795982 226.629837,38.865494 
	C225.125534,40.049694 223.954208,40.587471 222.782883,41.125256 
z"/>
<path fill="#306AA0" opacity="1.000000" stroke="none" 
	d="
M291.968933,126.486595 
	C292.664368,126.994461 293.770996,127.966949 293.753479,128.918732 
	C293.674469,133.208359 293.032074,137.491974 293.029938,141.777985 
	C292.983643,234.321472 292.999084,326.864990 292.981689,419.408478 
	C292.981171,422.053986 292.751434,424.699432 292.343750,427.638580 
	C291.986115,426.274017 291.849518,424.615814 291.849457,422.957581 
	C291.846680,324.285614 291.855164,225.613647 291.968933,126.486595 
z"/>
<path fill="#3375AD" opacity="1.000000" stroke="none" 
	d="
M340.874878,26.312141 
	C340.874878,26.312140 340.754425,26.652346 340.734741,27.193888 
	C339.222717,31.674549 337.730408,35.613667 336.238068,39.552788 
	C336.238068,39.552784 336.151855,39.627823 335.794495,39.757610 
	C334.946442,40.249817 334.455688,40.612236 333.964966,40.974655 
	C333.964966,40.974659 334.002899,40.997772 333.783203,41.005608 
	C333.563507,41.013443 333.147247,41.070686 332.655029,41.041660 
	C331.185638,40.891731 330.208496,40.770828 329.505005,40.403847 
	C334.656555,35.583996 336.016022,29.607321 333.590546,23.399706 
	C331.677094,18.502575 325.901428,14.886883 319.868286,15.300180 
	C318.510742,15.393179 317.260956,17.059477 315.541077,18.000622 
	C312.277283,17.731192 311.950958,19.461437 311.972260,21.726358 
	C312.038879,28.811619 311.997223,35.897900 311.695251,43.049614 
	C310.639984,43.003468 309.886993,42.891499 309.337311,42.809757 
	C309.687805,41.882603 309.996857,41.065048 310.305908,40.247498 
	C310.305908,40.247498 310.284058,40.140972 310.498779,39.813744 
	C310.773865,32.414822 310.765656,25.341553 310.928314,18.272215 
	C310.993500,15.438272 310.018463,13.867270 307.037842,13.917303 
	C307.037842,13.917303 307.018066,13.514451 307.499390,13.282298 
	C312.599030,13.034367 317.223541,12.860298 321.834351,13.039123 
	C329.136475,13.322327 335.949219,14.794980 339.800995,22.053085 
	C339.873688,22.500376 339.946381,22.947664 340.092590,24.022835 
	C340.402344,25.204525 340.638611,25.758333 340.874878,26.312141 
z"/>
<path fill="#2A70A9" opacity="1.000000" stroke="none" 
	d="
M245.190903,16.273014 
	C245.211426,16.632658 245.231934,16.992302 245.116455,18.048084 
	C245.296310,21.154444 245.612152,23.564661 245.928009,25.974880 
	C249.062607,25.974880 252.197205,25.974880 255.641647,25.974880 
	C255.641647,26.908226 255.641647,28.135103 255.641647,29.418457 
	C252.471878,28.905006 249.358551,28.400696 246.258743,27.898577 
	C243.889725,41.922478 245.925186,42.078491 256.518890,40.175068 
	C256.320526,43.597927 250.697296,44.404640 239.225937,42.848122 
	C239.225937,33.361656 239.225937,23.958136 239.225937,14.048225 
	C240.799408,13.726998 242.494064,13.381031 244.599304,13.490345 
	C245.070206,14.721421 245.130554,15.497218 245.190903,16.273014 
z"/>
<path fill="#EFFAFB" opacity="1.000000" stroke="none" 
	d="
M340.229675,22.037689 
	C335.949219,14.794980 329.136475,13.322327 321.834351,13.039123 
	C317.223541,12.860298 312.599030,13.034367 307.516785,13.081381 
	C308.345917,12.131150 309.713470,10.222635 310.919830,10.319577 
	C318.411835,10.921625 325.867706,11.973572 333.483459,12.894125 
	C335.060730,11.086764 336.932007,8.942528 338.363098,7.302688 
	C340.234192,8.362348 342.052246,9.391970 344.093170,10.547822 
	C344.641022,7.984554 344.949768,6.540090 345.618011,5.437432 
	C346.284851,9.073469 346.592163,12.367701 346.872620,15.374213 
	C351.863647,11.059750 352.355499,7.519530 347.994507,4.811872 
	C352.700684,3.691807 353.760376,4.554782 352.523926,8.888123 
	C351.657715,11.923835 350.509094,14.905998 349.199707,17.781425 
	C347.554077,21.395260 344.306885,22.216305 340.229675,22.037689 
M339.745575,12.122477 
	C339.167999,13.580803 338.590393,15.039129 338.012787,16.497456 
	C338.453369,16.770630 338.893951,17.043804 339.334534,17.316980 
	C341.072266,16.216576 342.809967,15.116171 345.092468,13.670779 
	C342.899139,13.004396 341.658173,12.627372 339.745575,12.122477 
z"/>
<path fill="#2B74B0" opacity="1.000000" stroke="none" 
	d="
M537.015015,15.955847 
	C534.875977,15.955847 532.737000,15.955847 530.674683,15.955847 
	C528.968323,24.394838 529.731506,40.291576 532.107788,42.914948 
	C528.974487,42.914948 526.081238,42.914948 524.025391,42.914948 
	C524.025391,34.218697 524.025391,25.585594 524.070251,16.124285 
	C526.071350,14.575143 528.027527,13.854208 529.983765,13.133273 
	C532.032837,13.095924 534.081848,13.058576 536.570190,13.439636 
	C537.011292,14.557314 537.013123,15.256580 537.015015,15.955847 
z"/>
<path fill="#2571AE" opacity="1.000000" stroke="none" 
	d="
M89.922859,41.037193 
	C78.664848,35.625553 76.804291,21.607424 86.728195,12.035368 
	C88.234131,12.477222 89.104187,13.060168 89.974243,13.643112 
	C85.068626,23.238373 86.316238,32.518341 93.602379,39.311035 
	C92.539345,40.223099 91.231102,40.630146 89.922859,41.037193 
z"/>
<path fill="#3173A9" opacity="1.000000" stroke="none" 
	d="
M401.507446,36.776932 
	C400.791077,39.144829 400.074707,41.512733 399.358368,43.880634 
	C398.875793,43.910961 398.393219,43.941288 397.910645,43.971615 
	C396.334656,40.436825 394.718445,36.919285 393.192230,33.363125 
	C391.034210,28.334860 389.090179,23.208117 386.747772,18.269016 
	C385.849396,16.374763 384.106720,14.880949 382.813629,13.284754 
	C385.741760,13.284754 389.251587,13.284754 392.375458,13.284754 
	C392.386475,21.119177 397.219025,27.537706 399.947449,35.015373 
	C400.831360,35.767490 401.169403,36.272213 401.507446,36.776932 
z"/>
<path fill="#2B74B0" opacity="1.000000" stroke="none" 
	d="
M371.701935,12.018038 
	C377.151031,22.062893 378.686584,34.105316 386.105408,42.658504 
	C383.903168,41.901421 379.642365,46.045776 377.083496,39.849144 
	C375.464478,35.351688 373.894836,31.680630 372.168945,27.657894 
	C370.440155,24.296793 368.867554,21.287367 367.204529,18.191456 
	C367.114105,18.104973 366.934814,17.930365 366.947449,17.538988 
	C367.023590,14.035302 367.751953,11.537623 371.701935,12.018038 
z"/>
<path fill="#2C72AD" opacity="1.000000" stroke="none" 
	d="
M496.933472,19.122950 
	C497.737762,17.146284 498.542053,15.169623 499.978973,11.638081 
	C505.191071,22.899172 509.850708,32.966690 514.423584,42.846649 
	C513.096252,42.846649 510.420288,42.846649 507.712402,42.846649 
	C506.578491,39.860264 505.416290,36.799294 504.085938,33.090874 
	C503.572998,31.944151 503.228210,31.444872 502.890015,30.582718 
	C501.269745,27.504047 499.642853,24.788256 497.897614,21.776285 
	C497.497345,20.694389 497.215424,19.908672 496.933472,19.122950 
z"/>
<path fill="#498AC2" opacity="1.000000" stroke="none" 
	d="
M353.422302,124.664604 
	C354.544403,124.390381 356.137207,123.896881 357.730316,123.896019 
	C414.498840,123.865112 471.267395,123.880325 528.497192,123.947578 
	C526.840576,124.209549 524.722900,124.588898 522.604858,124.590851 
	C466.367615,124.642654 410.130402,124.655533 353.422302,124.664604 
z"/>
<path fill="#2571AE" opacity="1.000000" stroke="none" 
	d="
M153.053284,39.991795 
	C153.053284,31.518141 153.053284,23.044485 153.053284,13.957876 
	C154.212280,13.957876 156.130142,13.957876 158.521362,14.269011 
	C159.031540,14.799966 159.068375,15.019786 159.092300,15.447077 
	C159.079391,15.654549 158.908600,16.033592 158.642685,16.316740 
	C158.540619,19.384462 158.704453,22.169037 158.937103,25.168329 
	C159.005905,25.383047 159.079391,25.827967 158.982941,26.074974 
	C158.964386,26.902641 159.042313,27.483303 159.071381,28.467131 
	C158.974625,31.262180 158.926743,33.654064 158.938843,36.367821 
	C159.050842,37.122345 159.102859,37.554989 159.094238,38.361847 
	C159.507492,40.124905 159.981400,41.513744 160.726776,43.698162 
	C157.811203,41.922764 153.356583,45.871689 153.053284,39.991795 
z"/>
<path fill="#4278A6" opacity="1.000000" stroke="none" 
	d="
M372.325165,28.009575 
	C373.894836,31.680630 375.464478,35.351688 377.032776,39.410431 
	C376.659576,39.059502 376.235107,38.342316 375.924377,37.578835 
	C373.785828,32.323975 368.696777,30.008144 363.497833,31.947323 
	C360.694275,32.993042 358.908813,40.624321 360.887756,43.103085 
	C360.730988,43.158981 360.574432,43.262939 360.417419,43.263588 
	C357.943237,43.273827 355.469025,43.270775 353.832581,43.270775 
	C356.868256,35.802048 359.938599,28.248114 363.409576,20.370747 
	C364.578003,20.383337 365.345795,20.719360 366.091797,21.441000 
	C365.364563,24.070776 364.659149,26.314936 363.634277,29.575197 
	C367.144623,28.942829 369.734894,28.476204 372.325165,28.009575 
z"/>
<path fill="#3070A5" opacity="1.000000" stroke="none" 
	d="
M164.077560,13.756057 
	C170.631348,14.643784 172.531738,18.006100 168.985748,23.328636 
	C167.193176,26.019272 168.567520,27.288195 170.164795,28.700243 
	C173.600830,31.737804 174.522278,35.152317 171.717285,39.648552 
	C167.087448,42.454941 167.087448,42.454941 166.375763,39.854706 
	C168.770340,36.598785 168.432999,33.716061 165.896484,30.708647 
	C164.872574,29.593422 163.928970,28.779982 162.991745,27.657890 
	C162.998230,26.937578 162.998352,26.525915 163.333496,25.967049 
	C167.329437,22.673098 166.369995,19.379219 163.996124,15.659235 
	C164.034058,14.771141 164.055801,14.263598 164.077560,13.756057 
z"/>
<path fill="#2872AF" opacity="1.000000" stroke="none" 
	d="
M422.831696,41.072952 
	C414.762299,35.359100 413.541260,27.098877 420.124878,18.217398 
	C421.189423,19.722368 421.594666,21.311274 422.007538,23.356045 
	C421.512360,30.536922 422.730621,36.561352 428.352783,40.696606 
	C426.183716,40.891495 424.507721,40.982224 422.831696,41.072952 
z"/>
<path fill="#2872AF" opacity="1.000000" stroke="none" 
	d="
M439.985596,14.022507 
	C440.392761,14.037377 440.799866,14.052242 441.714417,14.355767 
	C444.749268,17.449095 447.276703,20.253763 449.804199,23.058424 
	C449.849609,23.493299 449.895020,23.928183 449.979614,24.931364 
	C450.066162,25.664814 450.113586,25.829964 450.161011,25.995113 
	C450.089417,27.701164 450.017792,29.407217 449.711304,31.727592 
	C449.372070,32.906639 449.267761,33.471359 449.163422,34.036079 
	C449.163422,34.036076 448.967438,34.403664 448.739868,34.658077 
	C448.512299,34.912491 448.113403,35.051044 447.863983,35.187965 
	C447.533234,35.678791 447.451874,36.032692 447.370514,36.386589 
	C447.370514,36.386589 447.189026,36.224842 446.988281,36.290920 
	C446.487396,36.868275 446.187195,37.379551 445.503296,37.925896 
	C444.092316,37.987099 443.065094,38.013229 442.116821,37.659485 
	C445.587067,28.619877 444.408264,22.489664 438.539490,16.240303 
	C439.257782,15.379411 439.621704,14.700955 439.985596,14.022507 
z"/>
<path fill="#2271B3" opacity="1.000000" stroke="none" 
	d="
M456.103363,21.045918 
	C456.709442,20.144196 457.315552,19.242477 458.569214,18.171791 
	C460.240265,18.493097 461.263733,18.983366 462.287231,19.473631 
	C460.224274,26.433287 458.960083,33.263973 465.853027,39.208908 
	C466.550690,39.807556 466.855255,39.901226 467.204254,39.850620 
	C467.204254,39.850620 467.070221,39.887268 467.029541,40.195763 
	C466.002747,40.996815 465.016632,41.489368 464.030548,41.981922 
	C464.030548,41.981922 464.013062,42.004795 463.841675,41.749458 
	C463.120697,41.327057 462.571106,41.159992 462.021515,40.992924 
	C462.021515,40.992924 462.003448,41.004520 461.875671,40.769348 
	C461.443329,40.390423 461.138763,40.246674 460.834198,40.102924 
	C460.834198,40.102928 460.939362,40.071728 460.899719,39.758186 
	C460.125031,39.082745 459.390015,38.720844 458.654999,38.358944 
	C458.654999,38.358944 458.794342,38.185009 458.722046,37.973072 
	C458.300171,37.559345 457.950592,37.357555 457.310669,36.927254 
	C453.814209,31.651033 454.464050,26.377459 456.103363,21.045918 
z"/>
<path fill="#2D77B6" opacity="1.000000" stroke="none" 
	d="
M182.037048,14.099745 
	C182.785172,14.053037 183.533279,14.006329 184.700012,14.455173 
	C185.378906,22.807423 185.782455,30.665783 185.691345,38.518402 
	C185.681580,39.359921 182.789825,40.167995 181.234985,40.991585 
	C181.204224,32.966530 181.173462,24.941473 181.382065,16.278633 
	C181.759964,15.127148 181.898514,14.613446 182.037048,14.099745 
z"/>
<path fill="#2672B3" opacity="1.000000" stroke="none" 
	d="
M141.875565,35.326038 
	C141.875565,35.326038 141.906631,35.682587 142.008392,36.192322 
	C143.012924,38.283684 143.915710,39.865314 144.818497,41.446941 
	C144.818497,41.446941 144.624649,41.615295 144.258698,41.647026 
	C139.987839,42.868599 137.649826,41.424953 136.602905,37.511227 
	C136.277710,36.295555 135.532120,35.192337 134.979004,34.037636 
	C134.979004,34.037636 135.006165,34.009468 134.874252,33.656952 
	C133.113602,29.270996 131.484848,25.237551 129.751984,20.925201 
	C129.090561,20.087816 128.533264,19.529333 127.975967,18.970852 
	C127.975967,18.970850 128.003174,18.994478 128.339340,18.954819 
	C130.169235,18.237331 131.662949,17.559504 133.156677,16.881676 
	C133.156677,16.881676 133.050873,17.001678 133.043884,17.324659 
	C134.078308,19.739470 135.119720,21.831299 136.161148,23.923126 
	C137.692169,27.076721 139.223190,30.230318 140.927277,33.975452 
	C141.358765,34.820007 141.617172,35.073021 141.875565,35.326038 
z"/>
<path fill="#4076A4" opacity="1.000000" stroke="none" 
	d="
M496.693970,19.352894 
	C497.215424,19.908672 497.497345,20.694389 497.874268,22.143177 
	C497.003784,25.360815 496.038330,27.915380 494.893127,30.945595 
	C497.969452,30.945595 500.426422,30.945595 502.883392,30.945595 
	C503.228210,31.444872 503.572998,31.944151 503.926178,32.762154 
	C502.106934,33.084339 500.279144,33.071293 498.451782,33.094368 
	C493.186676,33.160847 490.210754,37.659378 492.093018,43.270943 
	C489.505737,43.152195 487.057556,43.039829 484.318909,42.802147 
	C484.028473,42.676834 484.039215,42.720085 484.039215,42.720078 
	C485.371826,41.392471 487.185638,40.295551 487.952179,38.696568 
	C490.965271,32.411148 493.648682,25.967649 496.693970,19.352894 
z"/>
<path fill="#1C6FB1" opacity="1.000000" stroke="none" 
	d="
M274.965759,13.142540 
	C275.423004,13.105327 275.880219,13.068109 276.830322,13.383677 
	C277.539978,14.798796 277.756714,15.861128 277.973450,16.923458 
	C277.973450,16.923458 278.015839,16.965687 277.830322,17.069859 
	C277.760986,17.442766 277.877197,17.711500 277.993408,17.980236 
	C278.030304,23.034672 278.067200,28.089109 277.747589,33.867168 
	C276.930878,37.363132 276.470734,40.135475 275.680786,42.975258 
	C274.905243,43.008377 274.459534,42.974052 274.016449,42.475288 
	C274.002014,33.663734 273.984924,25.316622 273.969971,16.631004 
	C274.303345,15.242511 274.634552,14.192523 274.965759,13.142540 
z"/>
<path fill="#E4F8FC" opacity="1.000000" stroke="none" 
	d="
M274.013794,42.939728 
	C274.459534,42.974052 274.905243,43.008377 276.054565,43.056667 
	C277.511780,43.184959 278.265350,43.299282 279.018951,43.413609 
	C278.609070,47.730438 275.178345,46.144714 273.331818,45.673515 
	C271.733429,45.265640 269.474518,43.049404 269.449738,41.599274 
	C269.309326,33.392628 269.753632,25.175976 270.354858,16.410336 
	C271.516266,16.241343 272.321594,16.624748 273.062927,17.472433 
	C272.998901,26.270077 272.998901,34.603439 272.998901,43.015030 
	C272.735443,43.034576 273.374634,42.987152 274.013794,42.939728 
z"/>
<path fill="#2271B3" opacity="1.000000" stroke="none" 
	d="
M550.896851,19.016373 
	C553.142517,21.151863 555.388123,23.287348 557.967285,25.918125 
	C558.629761,26.523932 558.958801,26.634443 559.287781,26.744955 
	C559.287781,26.744955 559.165771,26.783562 559.235718,27.093214 
	C560.697083,30.198200 562.088501,32.993534 563.479980,35.788868 
	C563.154297,36.011791 562.828613,36.234715 562.502930,36.457638 
	C561.365845,35.640236 560.228821,34.822838 559.091736,34.005440 
	C555.786438,31.569933 552.481201,29.134422 549.067688,25.992203 
	C549.495117,23.161737 545.231506,19.554861 550.896851,19.016373 
z"/>
<path fill="#4E7FAC" opacity="1.000000" stroke="none" 
	d="
M90.239090,13.438801 
	C89.104187,13.060168 88.234131,12.477222 87.006454,11.855425 
	C92.224358,7.229529 106.490952,4.896724 111.562958,8.648170 
	C113.218567,9.872723 112.722023,14.007024 112.731354,16.893791 
	C107.236977,8.708071 99.233185,7.326372 90.239090,13.438801 
z"/>
<path fill="#4076A4" opacity="1.000000" stroke="none" 
	d="
M127.716782,19.198895 
	C128.533264,19.529333 129.090561,20.087816 129.495697,21.141870 
	C127.304428,26.631405 125.148254,31.582430 123.292259,36.643536 
	C122.675674,38.324894 122.829941,40.288937 122.442398,42.429684 
	C119.919289,42.544804 117.585564,42.353977 115.251846,42.163155 
	C118.292366,36.840931 121.388512,31.549356 124.346176,26.181480 
	C125.539375,24.015949 126.429543,21.683451 127.716782,19.198895 
z"/>
<path fill="#3974A6" opacity="1.000000" stroke="none" 
	d="
M559.124207,34.360817 
	C560.228821,34.822838 561.365845,35.640236 562.502930,36.457638 
	C562.828613,36.234715 563.154297,36.011791 563.479980,35.788868 
	C562.088501,32.993534 560.697083,30.198200 559.266235,27.036970 
	C563.406250,28.614971 564.965393,32.051876 564.293213,36.396427 
	C563.584351,40.977512 560.343018,43.260525 556.020935,43.770466 
	C553.599060,44.056221 550.977112,43.933258 548.655090,43.265251 
	C547.390381,42.901432 546.563965,41.013943 546.155029,39.146305 
	C550.098511,40.879631 553.584473,43.919075 557.439636,40.631210 
	C558.744446,39.518414 558.625183,36.735748 559.124207,34.360817 
z"/>
<path fill="#DEF8FD" opacity="1.000000" stroke="none" 
	d="
M122.631783,42.123741 
	C122.829941,40.288937 122.675674,38.324894 123.292259,36.643536 
	C125.148254,31.582430 127.304428,26.631405 129.599823,21.420774 
	C131.484848,25.237551 133.113602,29.270996 134.855408,33.660522 
	C128.975174,32.819386 125.030182,34.727905 123.707916,41.608101 
	C123.094818,42.057621 122.863304,42.090679 122.631783,42.123741 
z"/>
<path fill="#3974A6" opacity="1.000000" stroke="none" 
	d="
M401.847168,36.652924 
	C401.169403,36.272213 400.831360,35.767490 400.297821,35.128296 
	C402.663971,28.934341 405.151459,22.841555 407.844238,16.840919 
	C408.448639,15.494184 409.771332,14.469805 410.763336,13.297023 
	C411.395477,13.736936 412.027618,14.176848 412.659760,14.616760 
	C409.168793,21.920813 405.677826,29.224865 401.847168,36.652924 
z"/>
<path fill="#DBF2FB" opacity="1.000000" stroke="none" 
	d="
M166.049896,40.026802 
	C167.087448,42.454941 167.087448,42.454941 171.607666,39.986320 
	C172.426804,45.710556 166.663223,44.994606 164.329071,45.406559 
	C160.001495,46.170322 155.238068,44.464439 150.023315,43.693432 
	C151.048233,42.302090 151.766495,41.327038 152.769012,40.171890 
	C153.356583,45.871689 157.811203,41.922764 160.726776,43.698162 
	C159.981400,41.513744 159.507492,40.124905 159.448242,38.416008 
	C161.925217,38.739567 163.987564,39.383186 166.049896,40.026802 
z"/>
<path fill="#42749E" opacity="1.000000" stroke="none" 
	d="
M462.566406,19.243912 
	C461.263733,18.983366 460.240265,18.493097 458.857178,17.980667 
	C463.156891,13.351196 475.668488,10.870153 481.275452,13.721965 
	C482.307190,14.246715 482.657074,16.111984 482.844421,17.789246 
	C475.629150,14.689319 468.986115,12.509510 462.566406,19.243912 
z"/>
<path fill="#4076A4" opacity="1.000000" stroke="none" 
	d="
M90.019882,41.291611 
	C91.231102,40.630146 92.539345,40.223099 93.920464,39.461372 
	C96.520996,39.708065 99.020416,40.515457 101.582367,40.866535 
	C106.432030,41.531120 110.452774,40.206707 112.867378,35.368015 
	C112.867378,36.318687 112.867378,37.269356 112.584442,38.821136 
	C112.499977,43.309395 109.051682,42.777279 106.930984,43.853981 
	C105.888435,43.915554 104.845894,43.977123 102.994797,44.036896 
	C99.126022,43.686268 96.065804,43.337440 93.005577,42.988617 
	C93.005577,42.988613 93.000114,43.000233 92.833160,42.758923 
	C92.112030,42.400528 91.557854,42.283443 91.003677,42.166359 
	C90.708084,41.959583 90.412491,41.752808 90.019882,41.291611 
z"/>
<path fill="#DEF8FD" opacity="1.000000" stroke="none" 
	d="
M163.397369,231.929611 
	C163.076126,226.135925 163.076126,220.290726 163.076126,214.445511 
	C163.568375,214.378677 164.060638,214.311844 164.552887,214.245010 
	C166.365448,221.553345 168.178009,228.861679 169.953308,236.570389 
	C168.304459,233.828354 166.692871,230.685944 164.912674,227.214737 
	C164.558014,228.599869 164.138321,230.238968 163.397369,231.929611 
z"/>
<path fill="#42749E" opacity="1.000000" stroke="none" 
	d="
M551.034790,18.676819 
	C545.231506,19.554861 549.495117,23.161737 548.939087,25.679913 
	C544.799866,20.081984 547.304443,13.919186 554.369324,13.047257 
	C557.123901,12.707299 559.955566,12.991674 563.152954,12.991674 
	C563.152954,14.987665 563.152954,16.673975 563.152954,17.794756 
	C560.898376,16.882603 558.587585,15.282690 556.237488,15.222761 
	C554.576782,15.180412 552.862854,17.224581 551.034790,18.676819 
z"/>
<path fill="#3974A6" opacity="1.000000" stroke="none" 
	d="
M483.659637,42.619263 
	C484.039215,42.720085 484.028473,42.676834 484.027832,42.658813 
	C477.543823,43.933838 471.061768,45.088207 464.322205,42.223579 
	C465.016632,41.489368 466.002747,40.996815 467.078613,40.146576 
	C471.321777,39.917965 475.491974,39.875145 479.618652,40.278126 
	C480.899841,40.403236 482.062927,41.737663 483.659637,42.619263 
z"/>
<path fill="#42749E" opacity="1.000000" stroke="none" 
	d="
M442.037872,38.039360 
	C443.065094,38.013229 444.092316,37.987099 445.549744,37.971039 
	C445.979950,37.981117 446.072296,38.071941 446.027374,38.296078 
	C445.982452,38.520214 445.952271,38.976398 445.952271,38.976398 
	C445.952271,38.976398 445.998505,39.001560 445.735962,39.055351 
	C445.289734,39.398407 445.106049,39.687672 444.922363,39.976936 
	C438.029694,44.793919 430.791321,45.276272 423.030762,41.389969 
	C424.507721,40.982224 426.183716,40.891495 428.687164,40.798927 
	C434.372925,42.983559 438.441833,41.585228 442.037872,38.039360 
z"/>
<path fill="#42749E" opacity="1.000000" stroke="none" 
	d="
M439.657928,13.766228 
	C439.621704,14.700955 439.257782,15.379411 438.189636,16.139771 
	C429.258026,13.461519 425.684418,15.002726 421.999908,22.900179 
	C421.594666,21.311274 421.189423,19.722368 420.431824,18.035830 
	C425.449341,11.910408 432.312866,12.375704 439.657928,13.766228 
z"/>
<path fill="#DEF8FD" opacity="1.000000" stroke="none" 
	d="
M134.972488,34.463718 
	C135.532120,35.192337 136.277710,36.295555 136.602905,37.511227 
	C137.649826,41.424953 139.987839,42.868599 144.283432,41.773003 
	C145.612625,42.032467 146.551163,42.197689 147.489685,42.362915 
	C147.575333,42.792290 147.660965,43.221664 147.746613,43.651043 
	C145.034439,44.273624 141.891571,46.072624 139.700974,45.270599 
	C135.322021,43.667362 134.519333,39.304337 134.972488,34.463718 
z"/>
<path fill="#EFFAFB" opacity="1.000000" stroke="none" 
	d="
M309.886505,40.175556 
	C309.996857,41.065048 309.687805,41.882603 309.337311,42.809757 
	C309.886993,42.891499 310.639984,43.003468 312.028381,43.125256 
	C313.119293,43.111473 313.574799,43.087872 314.255157,43.204773 
	C314.986145,43.503925 315.492340,43.662582 315.998505,43.821243 
	C315.908600,45.375515 315.818726,46.929787 315.684174,49.256142 
	C313.066040,47.157837 311.126556,45.603428 308.870087,43.794964 
	C308.158844,45.654037 307.668152,46.936718 307.053894,48.542328 
	C305.122894,42.843861 305.563416,41.462589 309.886505,40.175556 
z"/>
<path fill="#306AA0" opacity="1.000000" stroke="none" 
	d="
M181.082642,41.272385 
	C182.789825,40.167995 185.681580,39.359921 185.691345,38.518402 
	C185.782455,30.665783 185.378906,22.807423 185.065735,14.544737 
	C185.696533,15.238959 186.950882,16.327843 186.972992,17.441189 
	C187.139587,25.833624 187.063889,34.230873 187.063889,43.094677 
	C185.259354,43.094677 182.986328,43.094677 180.713287,43.094677 
	C180.785614,42.580845 180.857956,42.067017 181.082642,41.272385 
z"/>
<path fill="#4B7CA8" opacity="1.000000" stroke="none" 
	d="
M278.265869,16.640745 
	C277.756714,15.861128 277.539978,14.798796 277.171631,13.439928 
	C280.961731,13.143392 284.903381,13.143392 289.149902,13.143392 
	C289.149902,14.760771 289.149902,16.315462 289.149902,16.918648 
	C285.462677,16.723482 282.010468,16.540756 278.265869,16.640745 
z"/>
<path fill="#4B7CA8" opacity="1.000000" stroke="none" 
	d="
M529.523682,13.049101 
	C528.027527,13.854208 526.071350,14.575143 524.036011,15.657955 
	C520.375854,16.275503 516.794800,16.531172 512.889038,16.810024 
	C512.205750,14.068423 513.683350,12.608479 517.704895,12.896325 
	C521.473450,13.166063 525.276001,12.961031 529.523682,13.049101 
z"/>
<path fill="#DBF2FB" opacity="1.000000" stroke="none" 
	d="
M107.159706,44.133781 
	C109.051682,42.777279 112.499977,43.309395 112.568314,39.189949 
	C113.449753,39.892857 114.064392,40.828056 114.965439,41.963203 
	C117.585564,42.353977 119.919289,42.544804 122.442398,42.429684 
	C122.863304,42.090679 123.094818,42.057621 123.674614,41.981514 
	C123.128769,45.308086 120.703148,46.075710 117.615562,45.695667 
	C114.205582,45.275928 110.797394,44.841568 107.159706,44.133781 
z"/>
<path fill="#4278A6" opacity="1.000000" stroke="none" 
	d="
M273.126953,17.008156 
	C272.321594,16.624748 271.516266,16.241343 270.349915,15.943892 
	C269.544739,15.983070 269.100525,15.936296 267.950134,15.891180 
	C265.825714,16.241217 264.407440,16.589592 262.989197,16.937965 
	C262.349152,16.434984 261.709076,15.932005 261.069031,15.429024 
	C262.098419,14.598184 263.070557,13.154108 264.167938,13.051683 
	C267.438110,12.746460 270.757385,12.967977 274.511627,13.063120 
	C274.634552,14.192523 274.303345,15.242511 273.759918,16.640831 
	C273.547729,16.989161 273.126953,17.008156 273.126953,17.008156 
z"/>
<path fill="#4B7CA8" opacity="1.000000" stroke="none" 
	d="
M245.593079,16.094982 
	C245.130554,15.497218 245.070206,14.721421 244.999847,13.555591 
	C248.753860,13.165557 252.517899,13.165557 256.655273,13.165557 
	C256.381195,14.893365 256.136322,16.437029 256.079132,16.797398 
	C252.502121,16.485079 249.248688,16.201014 245.593079,16.094982 
z"/>
<path fill="#4B7CA8" opacity="1.000000" stroke="none" 
	d="
M316.375732,43.776039 
	C315.492340,43.662582 314.986145,43.503925 314.579498,43.124855 
	C315.496979,42.209850 316.314911,41.515259 317.525574,40.891296 
	C321.689301,40.857922 325.460327,40.753925 329.231323,40.649925 
	C330.208496,40.770828 331.185638,40.891731 332.579102,41.261063 
	C332.995392,41.509491 332.867981,41.956070 332.867981,41.956074 
	C332.073456,42.225235 331.278961,42.494392 329.835724,42.953537 
	C325.789673,43.461758 322.392365,43.779995 318.995026,44.098228 
	C318.247650,43.975765 317.500305,43.853302 316.375732,43.776039 
z"/>
<path fill="#42749E" opacity="1.000000" stroke="none" 
	d="
M347.737366,4.850214 
	C352.355499,7.519530 351.863647,11.059750 346.872620,15.374213 
	C346.592163,12.367701 346.284851,9.073469 345.949158,5.374878 
	C345.920807,4.970517 345.978485,4.989052 346.230865,4.941666 
	C346.647339,4.850483 346.811462,4.806685 346.975555,4.762888 
	C347.143768,4.804778 347.311981,4.846667 347.737366,4.850214 
z"/>
<path fill="#EFFAFB" opacity="1.000000" stroke="none" 
	d="
M307.061218,14.294434 
	C310.018463,13.867270 310.993500,15.438272 310.928314,18.272215 
	C310.765656,25.341553 310.773865,32.414822 310.444397,39.814201 
	C310.111603,35.542614 310.400330,30.902805 309.877502,26.356316 
	C309.423340,22.406570 308.051117,18.562393 307.061218,14.294434 
z"/>
<path fill="#EFFAFB" opacity="1.000000" stroke="none" 
	d="
M336.659790,39.681946 
	C337.730408,35.613667 339.222717,31.674549 340.813446,27.356262 
	C342.966644,30.559793 343.591400,34.235348 340.853088,37.676098 
	C340.018860,38.724365 338.361725,39.117779 336.659790,39.681946 
z"/>
<path fill="#4278A6" opacity="1.000000" stroke="none" 
	d="
M371.675537,11.662042 
	C367.751953,11.537623 367.023590,14.035302 366.627563,17.578976 
	C365.277710,18.337872 364.260406,18.665405 363.243103,18.992939 
	C364.257538,17.042242 365.311981,15.111056 366.274658,13.135154 
	C367.169281,11.298887 367.966003,9.414921 369.232117,6.606218 
	C370.372253,8.823117 371.010712,10.064582 371.675537,11.662042 
z"/>
<path fill="#DBF2FB" opacity="1.000000" stroke="none" 
	d="
M455.754456,21.180305 
	C454.464050,26.377459 453.814209,31.651033 457.383118,37.149803 
	C457.745941,37.600861 457.778229,38.067844 457.778229,38.067844 
	C452.786896,35.841507 451.372162,25.852470 455.754456,21.180305 
z"/>
<path fill="#EFFAFB" opacity="1.000000" stroke="none" 
	d="
M319.058838,44.435921 
	C322.392365,43.779995 325.789673,43.461758 329.600159,43.168068 
	C327.644073,44.837566 325.274872,46.482521 322.496552,48.411530 
	C321.245911,47.063026 320.184265,45.918324 319.058838,44.435921 
z"/>
<path fill="#DBF2FB" opacity="1.000000" stroke="none" 
	d="
M450.107361,22.836472 
	C447.276703,20.253763 444.749268,17.449095 442.020508,14.368455 
	C448.340515,14.323283 451.295776,17.254686 450.107361,22.836472 
z"/>
<path fill="#42749E" opacity="1.000000" stroke="none" 
	d="
M226.926361,33.492569 
	C226.570557,29.558157 226.401382,25.155832 225.962906,20.780497 
	C225.802795,19.182810 225.002640,17.649263 224.132385,16.039429 
	C224.518448,15.197343 225.266602,14.402284 226.014771,13.607224 
	C226.345291,13.901752 226.675827,14.196280 227.006348,14.490808 
	C227.006348,20.672319 227.006348,26.853832 226.926361,33.492569 
z"/>
<path fill="#4076A4" opacity="1.000000" stroke="none" 
	d="
M133.132507,16.527752 
	C131.662949,17.559504 130.169235,18.237331 128.322418,18.950935 
	C128.651077,17.039663 129.332809,15.092614 130.485901,11.799322 
	C131.797363,13.986962 132.452850,15.080395 133.132507,16.527752 
z"/>
<path fill="#DBF2FB" opacity="1.000000" stroke="none" 
	d="
M93.208076,43.276062 
	C96.065804,43.337440 99.126022,43.686268 102.608688,44.104523 
	C102.057983,44.952770 100.884491,46.542286 100.148773,46.360466 
	C97.814850,45.783665 95.644287,44.545807 93.208076,43.276062 
z"/>
<path fill="#4B7CA8" opacity="1.000000" stroke="none" 
	d="
M537.316711,16.074114 
	C537.013123,15.256580 537.011292,14.557314 537.004395,13.508416 
	C541.552490,11.993474 541.315613,14.749164 540.693970,18.090326 
	C539.609924,17.421360 538.614197,16.806870 537.316711,16.074114 
z"/>
<path fill="#3F6F96" opacity="1.000000" stroke="none" 
	d="
M279.350952,43.298462 
	C278.265350,43.299282 277.511780,43.184959 276.384399,42.989227 
	C276.470734,40.135475 276.930878,37.363132 277.665100,34.332611 
	C278.627869,36.735195 279.316589,39.395958 280.448792,42.346710 
	C280.952484,42.801758 281.012665,42.966820 281.072876,43.131878 
	C280.609589,43.149021 280.146271,43.166168 279.350952,43.298462 
z"/>
<path fill="#EFFAFB" opacity="1.000000" stroke="none" 
	d="
M337.094116,49.439407 
	C336.163147,47.871399 335.586029,46.235394 335.008911,44.599388 
	C335.821930,44.461998 336.634918,44.324604 337.447937,44.187214 
	C337.447937,45.915279 337.447937,47.643345 337.094116,49.439407 
z"/>
<path fill="#3F6F96" opacity="1.000000" stroke="none" 
	d="
M163.844086,13.478842 
	C164.055801,14.263598 164.034058,14.771141 163.648560,15.558804 
	C161.891617,15.639152 160.498413,15.439378 159.105209,15.239605 
	C159.068375,15.019786 159.031540,14.799966 158.949371,14.249406 
	C160.472900,13.679652 162.041763,13.440639 163.844086,13.478842 
z"/>
<path fill="#4076A4" opacity="1.000000" stroke="none" 
	d="
M136.144897,23.560955 
	C135.119720,21.831299 134.078308,19.739470 133.081787,17.254234 
	C134.127335,18.973480 135.127975,21.086132 136.144897,23.560955 
z"/>
<path fill="#42749E" opacity="1.000000" stroke="none" 
	d="
M222.928513,41.435638 
	C223.954208,40.587471 225.125534,40.049694 226.550232,39.286285 
	C226.803604,40.459038 226.803604,41.857422 226.803604,44.219635 
	C225.188522,43.148411 224.131332,42.447216 222.928513,41.435638 
z"/>
<path fill="#DEF8FD" opacity="1.000000" stroke="none" 
	d="
M144.875824,41.053749 
	C143.915710,39.865314 143.012924,38.283684 142.118866,36.333088 
	C143.062790,37.529598 143.997971,39.095074 144.875824,41.053749 
z"/>
<path fill="#E4F8FC" opacity="1.000000" stroke="none" 
	d="
M263.022461,17.228725 
	C264.407440,16.589592 265.825714,16.241217 267.621887,15.967878 
	C266.351776,16.535105 264.703735,17.027292 263.022461,17.228725 
z"/>
<path fill="#EFFAFB" opacity="1.000000" stroke="none" 
	d="
M331.980774,49.924522 
	C331.388672,49.415997 331.120911,48.905518 330.853149,48.395039 
	C331.599731,48.391304 332.346344,48.387573 333.092926,48.383842 
	C332.830322,48.896748 332.567719,49.409660 331.980774,49.924522 
z"/>
<path fill="#4B7CA8" opacity="1.000000" stroke="none" 
	d="
M245.777374,25.575455 
	C245.612152,23.564661 245.296310,21.154444 245.043610,18.309401 
	C245.280106,20.308393 245.453415,22.742210 245.777374,25.575455 
z"/>
<path fill="#2B74B0" opacity="1.000000" stroke="none" 
	d="
M363.167084,19.230394 
	C364.260406,18.665405 365.277710,18.337872 366.614899,17.970352 
	C366.934814,17.930365 367.114105,18.104973 367.178284,18.502888 
	C366.866150,19.619001 366.489868,20.337200 366.113586,21.055391 
	C365.345795,20.719360 364.578003,20.383337 363.497803,20.002407 
	C363.185425,19.957499 363.091034,19.467848 363.167084,19.230394 
z"/>
<path fill="#498AC2" opacity="1.000000" stroke="none" 
	d="
M528.763550,119.429535 
	C528.751770,118.828758 528.806091,118.637596 528.954224,118.162872 
	C529.266968,119.811050 529.485962,121.742790 529.366455,123.828224 
	C528.961853,122.600998 528.895691,121.220070 528.763550,119.429535 
z"/>
<path fill="#498AC2" opacity="1.000000" stroke="none" 
	d="
M353.692017,431.045502 
	C353.476044,431.756500 352.961548,432.517639 352.447083,433.278809 
	C352.329132,432.581879 352.211121,431.884979 352.220001,430.839111 
	C352.695740,430.692017 353.044617,430.893860 353.692017,431.045502 
z"/>
<path fill="#3974A6" opacity="1.000000" stroke="none" 
	d="
M458.772888,38.632362 
	C459.390015,38.720844 460.125031,39.082745 460.870178,39.804409 
	C460.217133,39.744709 459.553925,39.325249 458.772888,38.632362 
z"/>
<path fill="#DBF2FB" opacity="1.000000" stroke="none" 
	d="
M449.445801,33.989639 
	C449.267761,33.471359 449.372070,32.906639 449.705109,32.154591 
	C449.865265,32.625908 449.796722,33.284554 449.445801,33.989639 
z"/>
<path fill="#E4F8FC" opacity="1.000000" stroke="none" 
	d="
M281.243439,43.347481 
	C281.012665,42.966820 280.952484,42.801758 280.831268,42.380650 
	C281.383575,42.376740 281.996918,42.628880 282.610229,42.881020 
	C282.211487,43.108376 281.812744,43.335732 281.243439,43.347481 
z"/>
<path fill="#306AA0" opacity="1.000000" stroke="none" 
	d="
M181.716492,14.039038 
	C181.898514,14.613446 181.759964,15.127148 181.409027,15.809605 
	C181.263077,15.311685 181.329498,14.645008 181.716492,14.039038 
z"/>
<path fill="#DBF2FB" opacity="1.000000" stroke="none" 
	d="
M91.187447,42.387547 
	C91.557854,42.283443 92.112030,42.400528 92.838074,42.754116 
	C92.463692,42.863327 91.917458,42.736031 91.187447,42.387547 
z"/>
<path fill="#EFFAFB" opacity="1.000000" stroke="none" 
	d="
M340.912964,25.999210 
	C340.638611,25.758333 340.402344,25.204525 340.206329,24.343510 
	C340.481415,24.586296 340.716217,25.136288 340.912964,25.999210 
z"/>
<path fill="#3974A6" opacity="1.000000" stroke="none" 
	d="
M462.184753,41.245251 
	C462.571106,41.159992 463.120697,41.327057 463.838440,41.736023 
	C463.453705,41.817806 462.900818,41.657692 462.184753,41.245251 
z"/>
<path fill="#EFFAFB" opacity="1.000000" stroke="none" 
	d="
M334.296753,40.953873 
	C334.455688,40.612236 334.946442,40.249817 335.754211,39.798126 
	C335.590363,40.116932 335.109436,40.525009 334.296753,40.953873 
z"/>
<path fill="#42749E" opacity="1.000000" stroke="none" 
	d="
M445.933472,37.935974 
	C446.187195,37.379551 446.487396,36.868275 447.098938,36.341286 
	C447.305420,36.673405 447.200592,37.021233 446.806946,37.669220 
	C446.518127,37.969383 446.072296,38.071941 446.072296,38.071941 
	C446.072296,38.071941 445.979950,37.981117 445.933472,37.935974 
z"/>
<path fill="#498AC2" opacity="1.000000" stroke="none" 
	d="
M352.570923,425.744080 
	C352.163940,425.785797 352.088898,425.522034 352.353638,425.101501 
	C352.545013,425.171936 352.614807,425.336548 352.570923,425.744080 
z"/>
<path fill="#498AC2" opacity="1.000000" stroke="none" 
	d="
M352.586243,125.726265 
	C352.363037,125.762039 352.258453,125.560463 352.218994,125.346855 
	C352.204193,125.266823 352.340790,125.158829 352.568817,124.991898 
	C352.729736,125.108162 352.730225,125.296143 352.586243,125.726265 
z"/>
<path fill="#EFFAFB" opacity="1.000000" stroke="none" 
	d="
M346.862244,4.628463 
	C346.811462,4.806685 346.647339,4.850483 346.229065,4.911499 
	C346.232910,4.783824 346.490906,4.638931 346.862244,4.628463 
z"/>
<path fill="#DBF2FB" opacity="1.000000" stroke="none" 
	d="
M446.027374,38.296078 
	C446.072296,38.071941 446.518127,37.969383 446.744446,37.935848 
	C446.793030,38.193909 446.615295,38.485504 446.194916,38.876747 
	C445.952271,38.976398 445.982452,38.520214 446.027374,38.296078 
z"/>
<path fill="#EFFAFB" opacity="1.000000" stroke="none" 
	d="
M333.115601,41.869164 
	C332.867981,41.956070 332.995392,41.509491 333.071320,41.290089 
	C333.147247,41.070686 333.563507,41.013443 333.771851,40.986336 
	C333.774536,41.233574 333.568848,41.507915 333.115601,41.869164 
z"/>
<path fill="#3974A6" opacity="1.000000" stroke="none" 
	d="
M460.934021,40.355221 
	C461.138763,40.246674 461.443329,40.390423 461.874695,40.759094 
	C461.678925,40.858517 461.356384,40.733021 460.934021,40.355221 
z"/>
<path fill="#3974A6" opacity="1.000000" stroke="none" 
	d="
M467.093018,39.613194 
	C466.855255,39.901226 466.550690,39.807556 466.147919,39.370087 
	C466.330780,39.238964 466.656281,39.307365 467.093018,39.613194 
z"/>
<path fill="#DBF2FB" opacity="1.000000" stroke="none" 
	d="
M445.167755,39.889816 
	C445.106049,39.687672 445.289734,39.398407 445.724152,39.031860 
	C445.787659,39.237278 445.600403,39.519985 445.167755,39.889816 
z"/>
<path fill="#3974A6" opacity="1.000000" stroke="none" 
	d="
M458.003784,38.177723 
	C457.778229,38.067844 457.745941,37.600861 457.673492,37.378311 
	C457.950592,37.357555 458.300171,37.559345 458.684601,38.078026 
	C458.556091,38.359146 458.392700,38.323372 458.003784,38.177723 
z"/>
<path fill="#DBF2FB" opacity="1.000000" stroke="none" 
	d="
M448.113403,35.051044 
	C448.113403,35.051044 448.512299,34.912491 448.718109,34.865227 
	C448.812073,35.131691 448.700256,35.445423 448.363586,35.658485 
	C448.130280,35.388893 448.121857,35.219971 448.113403,35.051044 
z"/>
<path fill="#42749E" opacity="1.000000" stroke="none" 
	d="
M447.863983,35.187965 
	C448.121857,35.219971 448.130280,35.388893 448.158722,35.810898 
	C448.178711,36.063980 447.791779,36.269985 447.581146,36.328289 
	C447.451874,36.032692 447.533234,35.678791 447.863983,35.187965 
z"/>
<path fill="#DEF8FD" opacity="1.000000" stroke="none" 
	d="
M141.850220,35.057205 
	C141.617172,35.073021 141.358765,34.820007 141.109055,34.285286 
	C141.353455,34.265179 141.589172,34.526779 141.850220,35.057205 
z"/>
<path fill="#3974A6" opacity="1.000000" stroke="none" 
	d="
M559.169434,26.503613 
	C558.958801,26.634443 558.629761,26.523932 558.181580,26.171892 
	C558.391907,26.041000 558.721497,26.151636 559.169434,26.503613 
z"/>
<path fill="#DBF2FB" opacity="1.000000" stroke="none" 
	d="
M450.348602,25.873775 
	C450.113586,25.829964 450.066162,25.664814 450.070129,25.247261 
	C450.121521,24.994858 450.563629,25.003605 450.781799,25.001812 
	C451.000000,25.000019 450.992371,24.994257 450.992371,24.994257 
	C450.912140,25.290195 450.760071,25.542923 450.348602,25.873775 
z"/>
<path fill="#DBF2FB" opacity="1.000000" stroke="none" 
	d="
M451.002899,25.003819 
	C451.091583,24.967752 451.177368,24.927887 451.127747,24.941139 
	C450.992371,24.994257 451.000000,25.000019 451.002899,25.003819 
z"/>
<path fill="#4B7CA8" opacity="1.000000" stroke="none" 
	d="
M278.064148,17.735027 
	C277.877197,17.711500 277.760986,17.442766 277.808289,17.090096 
	C278.026123,17.167381 278.080505,17.328600 278.064148,17.735027 
z"/>
<path fill="#498AC2" opacity="1.000000" stroke="none" 
	d="
M349.321442,429.847015 
	C350.015228,430.644806 350.588013,431.756317 351.160767,432.867798 
	C350.644867,433.050598 350.128967,433.233398 349.613037,433.416199 
	C349.475494,432.331024 349.337982,431.245880 349.321442,429.847015 
z"/>
<path fill="#EFF9FC" opacity="1.000000" stroke="none" 
	d="
M329.505005,40.403847 
	C325.460327,40.753925 321.689301,40.857922 317.399414,40.502865 
	C316.574219,32.696377 316.267883,25.348944 315.961578,18.001511 
	C317.260956,17.059477 318.510742,15.393179 319.868286,15.300180 
	C325.901428,14.886883 331.677094,18.502575 333.590546,23.399706 
	C336.016022,29.607321 334.656555,35.583996 329.505005,40.403847 
z"/>
<path fill="#256FAA" opacity="1.000000" stroke="none" 
	d="
M315.541077,18.000622 
	C316.267883,25.348944 316.574219,32.696377 317.006714,40.432240 
	C316.314911,41.515259 315.496979,42.209850 314.354675,42.984356 
	C313.574799,43.087872 313.119293,43.111473 312.330627,43.059425 
	C311.997223,35.897900 312.038879,28.811619 311.972260,21.726358 
	C311.950958,19.461437 312.277283,17.731192 315.541077,18.000622 
z"/>
<path fill="#FBFEFF" opacity="1.000000" stroke="none" 
	d="
M340.081421,12.186412 
	C341.658173,12.627372 342.899139,13.004396 345.092468,13.670779 
	C342.809967,15.116171 341.072266,16.216576 339.334534,17.316980 
	C338.893951,17.043804 338.453369,16.770630 338.012787,16.497456 
	C338.590393,15.039129 339.167999,13.580803 340.081421,12.186412 
M340.483063,14.587468 
	C340.483063,14.587468 340.418274,14.477978 340.483063,14.587468 
z"/>
<path fill="#DEF8FD" opacity="1.000000" stroke="none" 
	d="
M366.091797,21.441006 
	C366.489868,20.337200 366.866150,19.619001 367.268707,18.589371 
	C368.867554,21.287367 370.440155,24.296793 372.168945,27.657898 
	C369.734894,28.476204 367.144623,28.942829 363.634277,29.575197 
	C364.659149,26.314936 365.364563,24.070776 366.091797,21.441006 
z"/>
<path fill="#DEF8FD" opacity="1.000000" stroke="none" 
	d="
M502.890015,30.582718 
	C500.426422,30.945595 497.969452,30.945595 494.893127,30.945595 
	C496.038330,27.915380 497.003784,25.360815 497.992615,22.439358 
	C499.642853,24.788256 501.269745,27.504047 502.890015,30.582718 
z"/>
<path fill="#E4F8FC" opacity="1.000000" stroke="none" 
	d="
M159.092300,15.447077 
	C160.498413,15.439378 161.891617,15.639152 163.632385,15.939356 
	C166.369995,19.379219 167.329437,22.673098 162.944214,25.909866 
	C161.173080,25.942581 160.126236,25.885275 159.079391,25.827967 
	C159.079391,25.827967 159.005905,25.383047 159.005463,24.727734 
	C158.972870,21.392809 158.940735,18.713202 158.908600,16.033592 
	C158.908600,16.033592 159.079391,15.654549 159.092300,15.447077 
z"/>
<path fill="#F2FBFC" opacity="1.000000" stroke="none" 
	d="
M166.375763,39.854706 
	C163.987564,39.383186 161.925217,38.739567 159.508881,38.041794 
	C159.102859,37.554989 159.050842,37.122345 159.226410,36.146378 
	C160.074921,33.829834 160.695877,32.056614 161.296249,30.342154 
	C163.135223,30.604719 164.556015,30.807575 165.976807,31.010431 
	C168.432999,33.716061 168.770340,36.598785 166.375763,39.854706 
z"/>
<path fill="#DBF2FB" opacity="1.000000" stroke="none" 
	d="
M165.896484,30.708647 
	C164.556015,30.807575 163.135223,30.604719 161.296249,30.342154 
	C160.695877,32.056614 160.074921,33.829834 159.166412,35.824501 
	C158.926743,33.654064 158.974625,31.262180 159.457794,28.441406 
	C160.923843,27.997189 161.954605,27.981865 162.985382,27.966541 
	C163.928970,28.779982 164.872574,29.593422 165.896484,30.708647 
z"/>
<path fill="#3F6F96" opacity="1.000000" stroke="none" 
	d="
M158.642685,16.316740 
	C158.940735,18.713202 158.972870,21.392809 158.936646,24.513016 
	C158.704453,22.169037 158.540619,19.384462 158.642685,16.316740 
z"/>
<path fill="#3F6F96" opacity="1.000000" stroke="none" 
	d="
M162.991745,27.657890 
	C161.954605,27.981865 160.923843,27.997189 159.506653,28.038239 
	C159.042313,27.483303 158.964386,26.902641 158.982941,26.074974 
	C160.126236,25.885275 161.173080,25.942581 162.609192,26.057072 
	C162.998352,26.525915 162.998230,26.937578 162.991745,27.657890 
z"/>
<path fill="#F2FBFC" opacity="1.000000" stroke="none" 
	d="
M422.007538,23.356045 
	C425.684418,15.002726 429.258026,13.461519 437.835205,16.322208 
	C444.408264,22.489664 445.587067,28.619877 442.116821,37.659485 
	C438.441833,41.585228 434.372925,42.983559 429.180206,40.694771 
	C422.730621,36.561352 421.512360,30.536922 422.007538,23.356045 
z"/>
<path fill="#3F6F96" opacity="1.000000" stroke="none" 
	d="
M273.062927,17.472435 
	C273.126953,17.008156 273.547729,16.989161 273.757782,16.979334 
	C273.984924,25.316622 274.002014,33.663734 274.016449,42.475288 
	C273.374634,42.987152 272.735443,43.034576 272.998901,43.015030 
	C272.998901,34.603439 272.998901,26.270077 273.062927,17.472435 
z"/>
<path fill="#EFFAFB" opacity="1.000000" stroke="none" 
	d="
M340.450684,14.532722 
	C340.418274,14.477978 340.483063,14.587468 340.450684,14.532722 
z"/>
</svg>